<svg xmlns="http://www.w3.org/2000/svg" viewBox="0 0 2048 2048" fill="none" role="img" aria-label="BuyerPocket" preserveAspectRatio="xMidYMid meet">
  <!-- Source artwork — fills mapped to theme navy / coral -->
  <path fill="#0B1F3A" d="M 388.393 0 L 1659.57 0 L 1660.45 0.167849 C 1669.54 1.82819 1681.68 2.50487 1691.23 3.69714 C 1707.45 5.7415 1723.54 8.73609 1739.41 12.6655 C 1834.14 36.6203 1917.16 93.6797 1973.48 173.526 C 2006.39 221.084 2029.15 274.913 2040.34 331.656 C 2042.18 340.979 2043.66 349.092 2044.89 358.486 C 2045.67 364.435 2046.56 379.57 2048 384.496 L 2048 1659.52 C 2045.74 1669.5 2045.57 1683.06 2044.34 1693.52 C 2030.3 1812.71 1960.58 1916.74 1861.11 1982.23 C 1815.62 2012.07 1764.49 2032.23 1710.88 2041.48 C 1694.61 2044.32 1676.4 2045.12 1661.45 2048 L 389.188 2048 C 385.565 2047.03 373.84 2046.14 369.311 2045.63 C 357.912 2044.43 346.555 2042.85 335.258 2040.9 C 278.257 2030.89 224.16 2008.45 176.81 1975.17 C 97.1541 1919.05 35.0002 1834.65 12.1245 1739.31 C 8.57207 1724.42 5.92081 1709.33 4.18517 1694.12 C 3.00553 1683.58 1.94355 1668.41 0.163321 1658.48 L 0 1657.61 L 0 388.429 C 1.13151 384.601 2.25289 372.18 2.78114 367.612 C 4.06357 355.631 5.75845 343.697 7.86279 331.832 C 18.4416 275.274 40.9475 221.617 73.8821 174.435 C 131.426 91.791 217.708 33.562 315.88 11.1182 C 330.929 7.62282 346.158 4.95294 361.499 3.12055 C 369.671 2.12302 379.718 1.59154 387.52 0.167045 L 388.393 0 z"/>
  <path fill="#E8614A" d="M 1008.65 368.222 C 1050.38 364.075 1066.7 385.463 1094.25 411.588 L 1133.94 448.897 L 1263.46 570.482 L 1333.34 635.66 C 1344.61 646.171 1356.18 656.72 1367.25 667.451 C 1372.08 672.141 1373.63 676.859 1375.66 683.023 C 1373.29 692.59 1368.42 702.646 1357.54 703.738 C 1343.34 705.164 1325.25 683.505 1315.51 674.411 C 1297.94 658.116 1280.47 641.733 1263.07 625.263 L 1118.03 489.262 C 1092.45 465.268 1067.19 440.921 1041.19 417.382 C 1025.01 402.731 1009.95 405.494 994.421 419.469 C 976.272 435.798 958.701 452.707 940.942 469.453 C 911.834 496.64 882.875 523.984 854.064 551.485 L 665.475 728.941 L 545.749 842.031 L 504.51 880.51 C 496.859 887.683 487.444 895.779 480.915 903.827 C 469.903 917.399 472.153 937.573 485.86 948.302 C 495.783 955.98 509.3 957.089 520.342 951.131 C 529.685 946.057 548.041 927.168 556.583 919.154 C 577.241 900.069 597.762 880.837 618.146 861.46 L 875.341 619.284 L 960.41 539.062 C 975.867 524.457 991.27 509.597 1007.16 495.465 C 1012.92 490.334 1024.54 490.125 1030.37 495.196 C 1043.38 506.511 1055.81 518.789 1068.37 530.665 L 1138.53 596.297 L 1381.98 823.853 L 1465.08 901.878 C 1480.07 916.005 1494.77 930.188 1510.47 944.264 C 1538.94 969.781 1577.26 939.82 1561.37 907.055 C 1557.13 898.32 1538.77 882.901 1530.78 875.475 L 1468.67 817.32 C 1459.86 809.137 1451.06 800.826 1442.2 792.691 C 1431.97 783.284 1421.33 771.209 1432.89 757.808 C 1436.56 753.484 1441.86 750.866 1447.52 750.571 C 1454.24 750.191 1461.45 754.733 1466.14 759.258 C 1500.81 792.724 1536.11 825.535 1571.53 858.201 C 1579.17 865.239 1587.44 872.472 1593.2 881.213 C 1624.2 928.192 1593 991.086 1536.64 994.015 C 1501.68 995.641 1483.68 974.777 1460.36 952.856 L 1419.35 914.305 L 1419.95 1296.91 C 1452.06 1274.06 1488.94 1251.07 1521.96 1228.75 C 1540.56 1216.09 1559.25 1203.56 1578.02 1191.14 C 1616.52 1165.53 1639.31 1148.1 1686.27 1165.33 C 1737.33 1185.55 1757.94 1252.78 1725.3 1297.07 C 1711.79 1315.39 1689.28 1333.18 1672.04 1348.61 L 1590.92 1421.28 L 1485.04 1516.67 C 1465.61 1534.17 1442.05 1556.49 1421.89 1572.52 C 1409.74 1582.31 1396.51 1590.67 1382.45 1597.43 C 1341.98 1616.82 1290.13 1620.49 1245.54 1626.77 L 1098.92 1647.81 L 948.076 1669.72 C 925.64 1672.96 894.049 1678.42 872.026 1680.31 C 861.477 1681.18 850.861 1680.66 840.444 1678.79 C 817.751 1674.63 770.337 1654.56 746.335 1645.53 L 591.751 1587.11 C 568.859 1578.49 545.052 1568.92 522.067 1560.87 C 521.348 1582.33 518.359 1595.36 504.358 1612.29 C 479.278 1642.61 448.733 1638.37 413.51 1638.19 C 383.525 1637.93 357.343 1642.22 333.346 1620.61 C 306.842 1596.51 307.03 1571.05 306.657 1537.04 C 306.421 1515.56 318.621 1497.04 342.382 1513.89 C 350.06 1522.16 347.483 1544.54 347.135 1554.29 C 346.452 1573.43 354.309 1594.81 375.528 1596.89 C 396.219 1598.91 418.251 1597.51 439.088 1597.79 C 451.104 1597.96 464.705 1596.7 472.983 1586.98 C 478.541 1580.68 480.901 1572.26 481.658 1563.9 C 482.157 1541.49 481.687 1519 481.693 1496.57 L 481.766 1352.39 L 481.795 1170.81 C 481.799 1141.39 481.915 1111.57 481.785 1082.12 C 481.741 1072.06 477.385 1060.59 469.369 1053.92 C 464.977 1050.31 459.783 1047.81 454.223 1046.63 C 438.841 1043.23 396.205 1045.84 378.847 1045.88 C 367.709 1045.91 353.532 1056.3 351.101 1064.27 C 344.883 1084.67 347.143 1123.63 347.13 1146.07 L 347.102 1322.16 L 347.14 1377.54 C 347.178 1392.77 351.205 1419.24 328.2 1420.89 C 323.579 1421.18 319.037 1419.58 315.617 1416.46 C 310.237 1411.62 307.214 1403.2 307.153 1396.22 C 306.987 1377.07 307.25 1357.56 307.249 1338.39 L 307.248 1211.73 L 307.217 1122.95 C 307.173 1108.41 306.272 1080.66 308.415 1067.38 C 310.57 1053.73 316.524 1040.97 325.594 1030.55 C 353.913 997.794 378.289 1006.76 415.444 1004.53 C 480.843 1000.6 519.386 1019.66 522.665 1092.12 C 560.444 1091.45 581.939 1091.3 619.358 1096.33 C 620.895 1039.69 619.869 972.618 619.192 916.052 C 601.013 931.78 558.35 976.374 540.553 986.326 C 531.052 991.596 520.481 994.646 509.632 995.247 C 490.356 996.232 471.464 989.609 457.022 976.804 C 442.647 963.876 434.225 946.306 432.895 927.02 C 430.077 886.128 466.482 861.45 493.164 836.079 L 576.13 757.478 C 590.196 744.216 610.147 726.481 622.964 712.55 L 622.724 572.112 C 622.665 550.792 621.456 527.569 623.36 506.599 C 624.846 490.235 643.436 481.626 658.192 481.853 C 683.856 482.247 709.785 481.106 735.427 481.716 C 747.098 481.994 766.989 480.415 777.613 482.443 C 784.212 483.666 790.305 486.804 795.134 491.466 C 807.232 503.338 804.423 525.083 804.35 541.63 C 842.952 506.144 881.24 470.318 919.209 434.156 C 925.576 428.135 931.888 421.969 938.405 416.109 C 962.547 394.398 974.945 374.363 1008.65 368.222 z"/>
  <path fill="#0B1F3A" d="M 525.49 1132.5 C 598.581 1130.57 666.438 1140.27 731.996 1173.92 C 782.975 1200.08 819.667 1222.15 877.01 1234.14 C 908.665 1240.77 934.504 1243.43 966.597 1247.18 L 1080.79 1260.35 C 1097.61 1262.31 1136.55 1265.72 1151.56 1269.59 C 1163.84 1272.7 1175.32 1278.41 1185.21 1286.33 C 1209.26 1305.49 1215.78 1327.23 1219.23 1356.09 C 1196.89 1353.06 1168.71 1351.35 1145.86 1349.36 L 1025.7 1338.66 L 844.118 1322.75 C 828.024 1321.44 812.018 1320.02 795.972 1318.33 C 786.853 1317.62 778.207 1319.55 771.4 1325.74 C 762.159 1333.41 766.174 1346.18 773.6 1353.62 C 780.836 1360.86 802.302 1360.27 812.431 1361.08 L 861.706 1365.27 L 1024.97 1379.53 L 1202.26 1395.13 C 1243.61 1398.73 1285.66 1402.39 1327.2 1402.99 C 1330.61 1403.25 1334.04 1402.05 1336.94 1400.32 C 1358.11 1387.72 1378.67 1373.07 1399.14 1359.42 C 1441.67 1331.15 1484.06 1302.66 1526.31 1273.96 C 1561.26 1251.66 1595.72 1226.06 1631.48 1205.26 C 1669.11 1183.37 1714.33 1226.21 1697 1265.65 C 1693.55 1273.52 1687.94 1278.9 1681.9 1285.1 C 1663.84 1302.11 1645.08 1318.47 1626.59 1335.04 L 1532.09 1420.07 L 1446.71 1496.56 C 1431.66 1510.07 1413.19 1527.69 1397.58 1540.11 C 1386.18 1549.04 1373.74 1556.53 1360.53 1562.44 C 1348.51 1567.6 1335.99 1571.48 1323.15 1574 C 1304.82 1577.6 1280.57 1580.52 1261.7 1583.26 L 1140.02 1600.72 L 982.563 1623.61 L 915.115 1633.48 C 898.674 1635.83 862.902 1642.24 848.082 1638.75 C 816.699 1631.35 779.692 1614.84 748.995 1603.29 L 522.002 1517.23 C 521.021 1490.66 520.245 1139.58 522.895 1133.11 L 525.49 1132.5 z"/>
  <path fill="#0B1F3A" d="M 1018.45 539.7 C 1025.59 544.626 1048.41 566.856 1056.21 574.186 L 1130.21 643.366 L 1293.45 796.173 C 1320.53 821.578 1354.38 851.436 1379.72 877.398 L 1379.89 1323.72 C 1361.25 1335.42 1339.68 1351.7 1321.23 1362.43 C 1300.76 1361.38 1279.73 1360.55 1259.35 1358.86 C 1257.45 1313.63 1242.76 1279.12 1205.9 1251.03 C 1188.49 1237.76 1173.75 1233.44 1153.28 1227.22 C 1152.6 1197.48 1153.15 1165.39 1153.14 1135.53 L 1153.11 959.796 C 1152.82 951.398 1148.71 942.867 1143.04 936.722 C 1135.14 928.163 1122.94 925.689 1111.64 925.619 C 1072.43 925.375 1033.19 925.889 993.969 925.741 L 946.693 925.511 C 931.488 925.431 912.859 923.754 899.983 932.897 C 881.957 945.697 885.608 969.898 885.433 989.132 C 885.319 1001.74 885.594 1014.37 885.575 1026.96 L 885.611 1194.63 C 862.775 1189.78 822.603 1176.67 802.127 1165.27 C 753.056 1137.95 714.699 1118.02 659.882 1104.02 C 659.221 1079.15 659.789 1051.43 659.803 1026.33 L 659.838 877.692 C 684.425 852.379 719.851 821.627 746.295 796.699 L 923.265 629.77 C 954.807 600.019 987.793 570.301 1018.45 539.7 z"/>
  <path fill="#0B1F3A" d="M 925.373 966.148 L 1113.21 965.986 L 1113.35 1223.36 C 1051.83 1215.87 987.069 1208.08 925.542 1201.73 C 925.092 1123.2 925.036 1044.68 925.373 966.148 z"/>
  <path fill="#0B1F3A" d="M 748.932 522.485 L 764.593 522.648 C 764.294 541.911 764.126 561.175 764.087 580.44 C 755.264 589.83 741.296 602.143 731.589 611.206 L 673.435 665.785 L 663.214 675.092 L 663.033 522.715 C 691.329 522.261 720.499 522.648 748.932 522.485 z"/>
</svg>
